<?xml version="1.0" encoding="utf-8"?>
<!-- Generator: Adobe Illustrator 16.0.0, SVG Export Plug-In . SVG Version: 6.00 Build 0)  -->
<!DOCTYPE svg PUBLIC "-//W3C//DTD SVG 1.1//EN" "http://www.w3.org/Graphics/SVG/1.1/DTD/svg11.dtd">
<svg version="1.1" xmlns="http://www.w3.org/2000/svg" xmlns:xlink="http://www.w3.org/1999/xlink" x="0px" y="0px"
	 width="1704.4px" height="1399.2px" viewBox="0 0 1704.4 1399.2" enable-background="new 0 0 1704.4 1399.2" xml:space="preserve">
<g id="Layer_1">
	<rect id="Background" fill="#F9D8D3" width="1704.4" height="1399.5"/>
</g>
<g id="Layer_2">
	<g>
		<path fill="#ED4C79" d="M1021.8,507.4c-1.7-23.9-21.8-42.5-45.8-42.6c2.4-0.9,4.1-3.2,4.1-5.9c0-3.5-2.9-6.4-6.4-6.4
			c-3.5,0-6.4,2.9-6.4,6.4c0,2.9,1.9,5.4,4.6,6.1c-22.1,2-40.1,19.9-41.8,42.4l-0.4,6h7c1.6,14.1,10.7,25.9,23.3,31.4
			c-2.9,3.6-4.6,8.1-4.6,13.1v20.6c0,4.9,1.7,9.3,4.5,12.9c-0.1,2.3-0.7,5.9-3.2,8.8c-2.4,2.7-6.1,4.4-11,4.9
			c-1.9-11.3-11.6-20-23.3-20.4v-5.1H882v-7.2h11.2c19,0,34.5-15.5,34.5-34.5v-31.8c0-16.6-11.8-30.5-27.5-33.8l11.9-11.9
			c1.2,0.4,2.6,0.6,3.9,0.6c7.6,0,13.7-6.2,13.7-13.7c0-7.6-6.2-13.7-13.7-13.7c-7.6,0-13.7,6.2-13.7,13.7c0,3.3,1.2,6.3,3.1,8.7
			l-12.4,12.4v-23c0-2.4-0.3-4.8-0.8-7.1c8.1-0.6,14.5-7.4,14.5-15.6c0-8.7-7-15.7-15.7-15.7h-1.5c-0.9-7.8-7.5-13.9-15.6-13.9H870
			c-2.6,0-5.2,0.7-7.5,1.9c-2.3-1.2-4.9-1.9-7.5-1.9h-3.7c-8,0-14.7,6.1-15.6,13.9h-0.9c-8.7,0-15.7,7-15.7,15.7
			c0,8.3,6.5,15.1,14.6,15.7c-0.5,2.3-0.8,4.6-0.8,7.1v23.7l-13.1-13.1c1.9-2.4,3.1-5.4,3.1-8.7c0-7.6-6.2-13.7-13.7-13.7
			c-7.6,0-13.7,6.2-13.7,13.7c0,7.6,6.2,13.7,13.7,13.7c1.4,0,2.7-0.2,3.9-0.6l12.2,12.2c-14.9,3.8-26,17.3-26,33.4v31.8
			c0,19,15.5,34.5,34.5,34.5h14.8v7.2h-37.3v5.1c-13.4,0.2-24.2,11.2-24.2,24.6c0,3.6,0.8,7,2.1,10c-6.8,3.9-19.6,13.3-23.5,31.9
			c-9.4,2-16.4,10.3-16.4,20.3v20.6c0,5.1,1.8,9.7,4.9,13.4c-13.5,6.2-22.9,19.8-22.9,35.6c0,12.2,5.9,24,15.7,31.3l3.8,2.9
			l20.1-20.1l19.8,19.8l3.9-3c9.6-7.5,15.1-18.8,15.1-30.9c0-16-9.7-29.9-23.5-35.9c2.9-3.6,4.6-8.1,4.6-13.1v-20.6
			c0-3.9-1.1-7.5-2.9-10.6c1.3-9,5.6-26.6,14.5-28.4l-0.1-0.5c2.8,1.2,5.8,1.8,9,1.9v70.5h10c1.9,7.5,7,13.6,13.7,16.9
			c-1.4,5.6-4.1,18.4-4.6,36.6c-13.4,2.8-23.4,14.6-23.4,28.8v41.3c0,9.8,4.8,18.4,12.1,23.8c-9,5.9-15,16.2-15,27.8
			c0,0.2,0,0.3,0,0.5l0.1,5.6h65h2.3h65l0.1-5.4l0-0.1c0-0.2,0-0.3,0-0.5c0-11.6-6-21.8-15-27.8c7.3-5.4,12.1-14,12.1-23.8v-41.3
			c0-14.9-11.2-27.3-25.6-29.2c-0.6-18.9-3.5-32-4.8-37c5.9-3.5,10.4-9.2,12.2-16.1h6.8v-70.5c8.3-0.3,15.6-4.7,19.8-11.3
			c1,0.1,2.4,0.1,4.1,0.1c8.1,0,22.4-1.3,31.4-9.4c4.7-4.2,7.3-9.6,8-16.1c6.7-3.5,11.2-10.4,11.2-18.4v-20.6
			c0-5.1-1.8-9.7-4.9-13.4c12.2-5.6,21-17.3,22.6-31.1h7.6L1021.8,507.4z M773.1,746.7l-2.5,1.1l-2.5-1c-2.4-1-4.1-3.3-4.1-5.9
			c0-3.5,2.9-6.4,6.4-6.4c3.5,0,6.4,2.9,6.4,6.4C776.9,743.3,775.4,745.6,773.1,746.7z M870.3,870.1c-2.4-8.4-8-15.5-15.4-19.8
			c6.6-5.4,10.8-13.6,10.8-22.8v-41.3c0-8.2-3.4-15.6-8.8-21c-0.1-6.8-0.2-31.1,2.5-41.6h20.4c2.9,11.5,2.6,39.3,2.5,43
			c-4.7,5.2-7.5,12.1-7.5,19.6v41.3c0,9.2,4.2,17.4,10.8,22.8C878.2,854.7,872.6,861.7,870.3,870.1z"/>
		<g>
			<text transform="matrix(1 0 0 1 606.0508 983.3784)"><tspan x="0" y="0" fill="#0D0D23" font-family="'Caveat-Bold'" font-size="132.5087" letter-spacing="-1">R</tspan><tspan x="64.7" y="0" fill="#0D0D23" font-family="'Caveat-Bold'" font-size="132.5087">obo Chef</tspan></text>
			<g>
				<g>
					<path fill="none" stroke="#0F0F25" stroke-width="11.5945" stroke-miterlimit="10" d="M899.8,521.3c0,16.7-13.5,30.3-30.3,30.3
						h-62c-16.7,0-30.3-13.5-30.3-30.3V488c0-16.7,13.5-30.3,30.3-30.3h62c16.7,0,30.3,13.5,30.3,30.3V521.3z"/>
					<circle fill="#0F0F25" cx="808.4" cy="493.4" r="9.6"/>
					<circle fill="#0F0F25" cx="865.7" cy="493.4" r="9.6"/>
					<g>
						<polyline fill="none" stroke="#0F0F25" stroke-width="8.2788" stroke-miterlimit="10" points="801.1,525.4 810.8,533 
							820.5,525.4 830.3,533 840,525.4 849.8,533 859.5,525.4 869.2,533 879,525.4 						"/>
					</g>
				</g>
				<g>
					<line fill="none" stroke="#0F0F25" stroke-width="8.2788" stroke-miterlimit="10" x1="807.9" y1="456.4" x2="784.4" y2="433"/>
					<circle fill="none" stroke="#0F0F25" stroke-width="8.2788" stroke-miterlimit="10" cx="781.8" cy="426.5" r="10.2"/>
				</g>
				<g>
					<line fill="none" stroke="#0F0F25" stroke-width="8.2788" stroke-miterlimit="10" x1="867.3" y1="456.4" x2="890.7" y2="433"/>
					<circle fill="none" stroke="#0F0F25" stroke-width="8.2788" stroke-miterlimit="10" cx="893.4" cy="426.5" r="10.2"/>
				</g>
				
					<rect x="789.7" y="570.7" fill="none" stroke="#0F0F25" stroke-width="11.5945" stroke-miterlimit="10" width="104.4" height="118.8"/>
				<path fill="none" stroke="#0F0F25" stroke-width="8.2788" stroke-miterlimit="10" d="M810.8,457.1v-32.6
					c0-15,12.2-27.2,27.2-27.2l0,0c15,0,27.2,12.2,27.2,27.2v32.6"/>
				<path fill="none" stroke="#0F0F25" stroke-width="4.4592" stroke-miterlimit="10" d="M810.3,434c0,0,26.2-17.8,54.1,0"/>
				<path fill="none" stroke="#0F0F25" stroke-width="8.2788" stroke-miterlimit="10" d="M863.9,413.1h3.2c6.8,0,12.3-5.5,12.3-12.3
					c0-6.8-5.5-12.3-12.3-12.3h-3.9c-0.6,0-1.3,0.1-1.9,0.1c0.2-0.8,0.2-1.6,0.2-2.4c0-6.8-5.5-12.3-12.3-12.3h-3.9
					c-3,0-5.7,1.1-7.8,2.8c-2.1-1.8-4.8-2.8-7.8-2.8h-3.9c-6.8,0-12.3,5.5-12.3,12.3c0,0.8,0.1,1.6,0.2,2.3c-0.4,0-0.9-0.1-1.3-0.1
					h-3.9c-6.8,0-12.3,5.5-12.3,12.3c0,6.8,5.5,12.3,12.3,12.3h1.1"/>
				
					<rect x="826.8" y="551.7" fill="none" stroke="#0F0F25" stroke-width="7.6866" stroke-miterlimit="10" width="27.2" height="18.9"/>
				
					<rect x="802.4" y="600.2" fill="none" stroke="#0F0F25" stroke-width="7.6866" stroke-miterlimit="10" width="78.7" height="48.4"/>
				<circle fill="#0F0F25" cx="864.2" cy="617.2" r="7.9"/>
				<rect x="811.7" y="611.5" fill="#0F0F25" width="7.6" height="26.5"/>
				<path fill="none" stroke="#0F0F25" stroke-width="8.2788" stroke-miterlimit="10" d="M797.8,691.2c1.4,11.5,11.2,20.4,23.1,20.4
					h45.4c11.9,0,21.7-8.9,23.1-20.4H797.8z"/>
				<path fill="none" stroke="#0F0F25" stroke-width="8.2788" stroke-miterlimit="10" d="M788.9,574.8c-1.5-0.3-3-0.5-4.5-0.5
					c-11.9,0-21.6,9.7-21.6,21.6c0,11.9,9.7,21.6,21.6,21.6c1.6,0,3.1-0.2,4.5-0.5V574.8z"/>
				<path fill="none" stroke="#0F0F25" stroke-width="8.2788" stroke-miterlimit="10" d="M894.4,574.8c1.5-0.3,3-0.5,4.5-0.5
					c11.9,0,21.6,9.7,21.6,21.6c0,11.9-9.7,21.6-21.6,21.6c-1.6,0-3.1-0.2-4.5-0.5V574.8z"/>
				<g>
					<path fill="none" stroke="#0F0F25" stroke-width="8.2788" stroke-miterlimit="10" d="M767,608c0,0-23.4,8.8-27.2,36.1"/>
					<g>
						<path fill="none" stroke="#0F0F25" stroke-width="11.5945" stroke-miterlimit="10" d="M756.7,682.5c0,8.8-7.1,15.9-15.9,15.9
							l0,0c-8.8,0-15.9-7.1-15.9-15.9v-21.6c0-8.8,7.1-15.9,15.9-15.9l0,0c8.8,0,15.9,7.1,15.9,15.9V682.5z"/>
						<path fill="none" stroke="#0F0F25" stroke-width="11.5945" stroke-miterlimit="10" d="M736.7,745.3c-4.6-1.8-7.9-6.3-7.9-11.6
							c0-6.9,5.6-12.5,12.5-12.5c6.9,0,12.5,5.6,12.5,12.5c0,5-3,9.4-7.3,11.3l16.4,16.4c8.3-6.4,13.6-16.5,13.6-27.7
							c0-19.4-15.8-35.2-35.2-35.2s-35.2,15.8-35.2,35.2c0,11.5,5.5,21.7,14.1,28.1L736.7,745.3z"/>
					</g>
				</g>
				<g>
					<g>
						<path fill="none" stroke="#0F0F25" stroke-width="11.5945" stroke-miterlimit="10" d="M940.4,542.3c0-8.8,7.1-15.9,15.9-15.9
							l0,0c8.8,0,15.9,7.1,15.9,15.9v21.6c0,8.8-7.1,15.9-15.9,15.9l0,0c-8.8,0-15.9-7.1-15.9-15.9V542.3z"/>
						<path fill="none" stroke="#0F0F25" stroke-width="11.5945" stroke-miterlimit="10" d="M968.3,490.7c0,0.1,0,0.2,0,0.4
							c0,6.9-5.6,12.5-12.5,12.5s-12.5-5.6-12.5-12.5c0-0.1,0-0.2,0-0.4h-22.7c0,0.1,0,0.2,0,0.4c0,19.4,15.8,35.2,35.2,35.2
							s35.2-15.8,35.2-35.2c0-0.1,0-0.2,0-0.4H968.3z"/>
					</g>
				</g>
				<path fill="none" stroke="#0F0F25" stroke-width="11.5945" stroke-miterlimit="10" d="M998.2,490c-1.6-21.9-19.8-39.1-42.1-39.1
					S915.6,468.1,914,490H998.2z"/>
				<circle fill="#0F0F25" cx="953.7" cy="438.9" r="6.7"/>
				<g>
					<g>
						<g>
							<path fill="none" stroke="#0F0F25" stroke-width="11.5945" stroke-miterlimit="10" d="M835.1,824.4c0,13.8-11.2,25-25,25l0,0
								c-13.8,0-25-11.2-25-25v-43.1c0-13.8,11.2-25,25-25l0,0c13.8,0,25,11.2,25,25V824.4z"/>
							<path fill="none" stroke="#0F0F25" stroke-width="8.2788" stroke-miterlimit="10" d="M813.5,710.9c0,0-5.7,18.2-5.7,47.7"/>
						</g>
						<path fill="none" stroke="#0F0F25" stroke-width="11.5945" stroke-miterlimit="10" d="M841.1,878.8c0-0.2,0-0.4,0-0.6
							c0-16-13-28.9-28.9-28.9h-1.1c-16,0-28.9,13-28.9,28.9c0,0.2,0,0.4,0,0.6H841.1z"/>
					</g>
					<g>
						<path fill="none" stroke="#0F0F25" stroke-width="11.5945" stroke-miterlimit="10" d="M856.2,824.4c0,13.8,11.2,25,25,25l0,0
							c13.8,0,25-11.2,25-25v-43.1c0-13.8-11.2-25-25-25l0,0c-13.8,0-25,11.2-25,25V824.4z"/>
						<path fill="none" stroke="#0F0F25" stroke-width="8.2788" stroke-miterlimit="10" d="M875.4,710.9c0,0,5.7,18.2,5.7,47.7"/>
						<path fill="none" stroke="#0F0F25" stroke-width="11.5945" stroke-miterlimit="10" d="M850.1,878.8c0-0.2,0-0.4,0-0.6
							c0-16,13-28.9,28.9-28.9h1.1c16,0,28.9,13,28.9,28.9c0,0.2,0,0.4,0,0.6H850.1z"/>
					</g>
				</g>
				<path fill="none" stroke="#0F0F25" stroke-width="8.4568" stroke-miterlimit="10" d="M754.9,652.4c0,0,3-33.2,18.9-36.3"/>
				<path fill="none" stroke="#0F0F25" stroke-width="8.2788" stroke-miterlimit="10" d="M919.1,605.5c0,0,43.1,4.5,43.1-25.7"/>
				<path fill="none" stroke="#0F0F25" stroke-width="8.2788" stroke-miterlimit="10" d="M943.3,574.4c0,0,2.9,21.4-22.8,21.4"/>
				<path fill="none" stroke="#0F0F25" stroke-width="8.2788" stroke-miterlimit="10" d="M827.6,761.3c0,0-0.8-34.8,3-47.7"/>
				<path fill="none" stroke="#0F0F25" stroke-width="8.2788" stroke-miterlimit="10" d="M862.3,761.3c0,0,0.8-34.8-3-47.7"/>
			</g>
		</g>
		<line fill="none" stroke="#0F0F25" stroke-width="8.2788" stroke-miterlimit="10" x1="736.7" y1="883.8" x2="975" y2="883.8"/>
		<line fill="none" stroke="#0F0F25" stroke-width="8.2788" stroke-miterlimit="10" x1="980.4" y1="884" x2="997.8" y2="884"/>
		
			<line fill="none" stroke="#0F0F25" stroke-width="8.2788" stroke-miterlimit="10" x1="1004.2" y1="883.7" x2="1017.2" y2="883.7"/>
		<line fill="none" stroke="#0F0F25" stroke-width="8.2788" stroke-miterlimit="10" x1="731.7" y1="883.1" x2="720.4" y2="883.1"/>
		<line fill="none" stroke="#0F0F25" stroke-width="8.2788" stroke-miterlimit="10" x1="714" y1="883.4" x2="701" y2="883.4"/>
	</g>
</g>
</svg>
