<svg height="410pt" viewBox="-38 0 410 410.10688" width="410pt" xmlns="http://www.w3.org/2000/svg"><path d="m252.640625 167.761719c0 69.75-56.542969 126.292969-126.292969 126.292969s-126.2929685-56.542969-126.2929685-126.292969 56.5429685-126.292969 126.2929685-126.292969 126.292969 56.542969 126.292969 126.292969zm0 0" fill="#e7d1c4"/><path d="m327.734375 182.886719-92.632813 16.070312c21.214844-25.601562 35.617188-71.796875 35.617188-104.929687 0-48.160156-30.433594-87.199219-67.972656-87.199219-37.539063 0-67.972656 39.039063-67.972656 87.199219 0 32.644531 13.988281 77.9375 34.683593 103.753906l-87.484375-12.953125v61.4375l99.355469-20.941406-23.0625 177.957031h92.417969l-29.953125-178.347656 107.003906 18.058594zm-124.988281-150.832031c24.597656 0 44.535156 29.710937 44.535156 66.363281 0 36.648437-19.9375 94.300781-44.535156 94.300781s-44.535156-57.652344-44.535156-94.300781c0-36.652344 19.9375-66.363281 44.535156-66.363281zm0 0" fill="#ffce56"/><path d="m250.683594 410.105469h-92.414063c-1.964843 0-3.835937-.84375-5.128906-2.316407-1.296875-1.476562-1.894531-3.4375-1.644531-5.382812l21.828125-168.414062-89.941407 18.953124c-2.011718.433594-4.109374-.074218-5.707031-1.378906-1.601562-1.292968-2.527343-3.242187-2.527343-5.300781v-61.4375c0-1.988281.863281-3.875 2.367187-5.171875 1.503906-1.292969 3.503906-1.875 5.460937-1.582031l71.984376 10.660156c-15.898438-26.535156-27.011719-64.402344-27.011719-94.707031 0-51.847656 33.554687-94.027344 74.800781-94.027344 41.242188 0 74.800781 42.179688 74.800781 94.027344 0 30.800781-11.253906 68.828125-27.398437 95.390625l76.414062-13.257813c1.972656-.34375 4.023438.207032 5.566406 1.503906 1.539063 1.296876 2.429688 3.210938 2.429688 5.222657v60.109375c0 2.007812-.886719 3.914062-2.421875 5.214844-1.53125 1.296874-3.546875 1.863281-5.542969 1.515624l-97.542968-16.460937 28.363281 168.886719c.332031 1.980468-.222657 4.007812-1.523438 5.542968-1.296875 1.527344-3.203125 2.410157-5.210937 2.410157zm-84.648438-13.652344h76.578125l-28.613281-170.390625c-.363281-2.175781.347656-4.394531 1.90625-5.957031 1.566406-1.5625 3.777344-2.292969 5.960938-1.902344l99.039062 16.714844v-43.917969l-84.636719 14.6875c-2.820312.484375-5.636719-.832031-7.074219-3.304688-1.433593-2.472656-1.175781-5.578124.652344-7.78125 19.089844-23.042968 34.042969-67.222656 34.042969-100.574218 0-44.316406-27.429687-80.375-61.144531-80.375-33.71875 0-61.148438 36.058594-61.148438 80.375 0 32.578125 14.578125 76.273437 33.1875 99.484375 1.757813 2.1875 1.992188 5.230469.59375 7.664062-1.394531 2.4375-4.144531 3.78125-6.921875 3.359375l-79.65625-11.792968v45.109374l91.125-19.203124c2.144531-.464844 4.410157.167968 6.039063 1.667968 1.621094 1.5 2.417968 3.695313 2.136718 5.886719zm36.710938-196.910156c-31.863282 0-51.363282-65.472657-51.363282-101.125 0-40.355469 23.039063-73.1875 51.363282-73.1875 28.320312 0 51.363281 32.828125 51.363281 73.1875-.003906 35.652343-19.5 101.125-51.363281 101.125zm0-160.660157c-20.4375 0-37.710938 27.265626-37.710938 59.535157 0 42.234375 22.136719 87.472656 37.710938 87.472656 15.578125 0 37.707031-45.238281 37.707031-87.472656 0-32.269531-17.265625-59.535157-37.707031-59.535157zm0 0" fill="#4c241d"/></svg>